<svg xmlns="http://www.w3.org/2000/svg" viewBox="0 0 300 200" fill="none">
  <!-- Code editor window -->
  <rect x="40" y="15" width="220" height="150" rx="6" fill="#0a0e14" stroke="#00e5ff" stroke-opacity="0.25" stroke-width="1.2"/>
  <rect x="40" y="15" width="220" height="20" rx="6" fill="#111722"/>
  <rect x="40" y="31" width="220" height="4" fill="#111722"/>
  <circle cx="56" cy="25" r="3.5" fill="#ef4444" fill-opacity="0.5"/>
  <circle cx="68" cy="25" r="3.5" fill="#f59e0b" fill-opacity="0.5"/>
  <circle cx="80" cy="25" r="3.5" fill="#22c55e" fill-opacity="0.5"/>
  <rect x="120" y="22" width="50" height="5" rx="1" fill="#00e5ff" fill-opacity="0.2"/>
  <!-- Code content -->
  <rect x="52" y="44" width="8" height="4" rx="1" fill="#7c3aed" fill-opacity="0.5"/>
  <rect x="64" y="44" width="40" height="4" rx="1" fill="#00e5ff" fill-opacity="0.25"/>
  <rect x="52" y="52" width="12" height="4" rx="1" fill="#00e5ff" fill-opacity="0.4"/>
  <rect x="68" y="52" width="30" height="4" rx="1" fill="#e8ecf0" fill-opacity="0.12"/>
  <rect x="52" y="60" width="8" height="4" rx="1" fill="#22c55e" fill-opacity="0.5"/>
  <rect x="64" y="60" width="60" height="4" rx="1" fill="#e8ecf0" fill-opacity="0.1"/>
  <rect x="62" y="68" width="10" height="4" rx="1" fill="#f59e0b" fill-opacity="0.4"/>
  <rect x="76" y="68" width="45" height="4" rx="1" fill="#e8ecf0" fill-opacity="0.08"/>
  <rect x="52" y="76" width="8" height="4" rx="1" fill="#22c55e" fill-opacity="0.5"/>
  <rect x="64" y="76" width="55" height="4" rx="1" fill="#00e5ff" fill-opacity="0.18"/>
  <rect x="52" y="84" width="15" height="4" rx="1" fill="#22c55e" fill-opacity="0.35"/>
  <rect x="71" y="84" width="30" height="4" rx="1" fill="#e8ecf0" fill-opacity="0.1"/>
  <!-- Cursor -->
  <rect x="52" y="92" width="8" height="4" rx="1" fill="#22c55e" fill-opacity="0.7"/>
  <!-- API diagram -->
  <rect x="90" y="175" width="50" height="18" rx="4" fill="#0a0e14" stroke="#00e5ff" stroke-opacity="0.2" stroke-width="0.8"/>
  <rect x="160" y="175" width="50" height="18" rx="4" fill="#0a0e14" stroke="#7c3aed" stroke-opacity="0.2" stroke-width="0.8"/>
  <path d="M140 184 L160 184" fill="none" stroke="#00e5ff" stroke-opacity="0.25" stroke-width="1"/>
  <polygon points="157,180 163,184 157,188" fill="#00e5ff" fill-opacity="0.25"/>
  <text x="115" y="188" text-anchor="middle" font-family="monospace" font-size="6" fill="#00e5ff" fill-opacity="0.3">API</text>
  <text x="185" y="188" text-anchor="middle" font-family="monospace" font-size="6" fill="#7c3aed" fill-opacity="0.3">APP</text>
</svg>